<svg width="16" height="17" viewBox="0 0 16 17" fill="none" xmlns="http://www.w3.org/2000/svg">
<path d="M7.95477 14.5238C8.4303 14.5238 8.81579 14.1383 8.81579 13.6628C8.81579 13.1873 8.4303 12.8018 7.95477 12.8018C7.47924 12.8018 7.09375 13.1873 7.09375 13.6628C7.09375 14.1383 7.47924 14.5238 7.95477 14.5238Z" fill="white"/>
<path d="M3.89032 12.9183C4.36585 12.9183 4.75134 12.5328 4.75134 12.0573C4.75134 11.5818 4.36585 11.1963 3.89032 11.1963C3.41479 11.1963 3.0293 11.5818 3.0293 12.0573C3.0293 12.5328 3.41479 12.9183 3.89032 12.9183Z" fill="white"/>
<path d="M12.0915 12.9047C12.567 12.9047 12.9525 12.5192 12.9525 12.0436C12.9525 11.5681 12.567 11.1826 12.0915 11.1826C11.616 11.1826 11.2305 11.5681 11.2305 12.0436C11.2305 12.5192 11.616 12.9047 12.0915 12.9047Z" fill="white"/>
<path d="M2.14032 8.89489C2.61585 8.89489 3.00134 8.5094 3.00134 8.03387C3.00134 7.55834 2.61585 7.17285 2.14032 7.17285C1.66479 7.17285 1.2793 7.55834 1.2793 8.03387C1.2793 8.5094 1.66479 8.89489 2.14032 8.89489Z" fill="white"/>
<path d="M13.8278 8.89099C14.3033 8.89099 14.6888 8.50549 14.6888 8.02997C14.6888 7.55444 14.3033 7.16895 13.8278 7.16895C13.3523 7.16895 12.9668 7.55444 12.9668 8.02997C12.9668 8.50549 13.3523 8.89099 13.8278 8.89099Z" fill="white"/>
<path d="M3.87079 4.88513C4.34631 4.88513 4.73181 4.49964 4.73181 4.02411C4.73181 3.54858 4.34631 3.16309 3.87079 3.16309C3.39526 3.16309 3.00977 3.54858 3.00977 4.02411C3.00977 4.49964 3.39526 4.88513 3.87079 4.88513Z" fill="white"/>
<path d="M12.0993 4.8695C12.5748 4.8695 12.9603 4.48401 12.9603 4.00848C12.9603 3.53295 12.5748 3.14746 12.0993 3.14746C11.6238 3.14746 11.2383 3.53295 11.2383 4.00848C11.2383 4.48401 11.6238 4.8695 12.0993 4.8695Z" fill="white"/>
<path d="M7.99774 3.25036C8.47327 3.25036 8.85876 2.86487 8.85876 2.38934C8.85876 1.91381 8.47327 1.52832 7.99774 1.52832C7.52221 1.52832 7.13672 1.91381 7.13672 2.38934C7.13672 2.86487 7.52221 3.25036 7.99774 3.25036Z" fill="white"/>
<path d="M9.32135 11.7843C9.64014 11.7843 9.89857 11.5259 9.89857 11.2071C9.89857 10.8883 9.64014 10.6299 9.32135 10.6299C9.00257 10.6299 8.74414 10.8883 8.74414 11.2071C8.74414 11.5259 9.00257 11.7843 9.32135 11.7843Z" fill="white"/>
<path d="M6.61432 11.7765C6.93311 11.7765 7.19154 11.5181 7.19154 11.1993C7.19154 10.8805 6.93311 10.6221 6.61432 10.6221C6.29554 10.6221 6.03711 10.8805 6.03711 11.1993C6.03711 11.5181 6.29554 11.7765 6.61432 11.7765Z" fill="white"/>
<path d="M4.6905 9.94447C5.00928 9.94447 5.26771 9.68604 5.26771 9.36725C5.26771 9.04847 5.00928 8.79004 4.6905 8.79004C4.37171 8.79004 4.11328 9.04847 4.11328 9.36725C4.11328 9.68604 4.37171 9.94447 4.6905 9.94447Z" fill="white"/>
<path d="M11.2569 9.9308C11.5757 9.9308 11.8341 9.67237 11.8341 9.35358C11.8341 9.0348 11.5757 8.77637 11.2569 8.77637C10.9381 8.77637 10.6797 9.0348 10.6797 9.35358C10.6797 9.67237 10.9381 9.9308 11.2569 9.9308Z" fill="white"/>
<path d="M4.6944 7.27064C5.01319 7.27064 5.27162 7.01221 5.27162 6.69342C5.27162 6.37464 5.01319 6.11621 4.6944 6.11621C4.37562 6.11621 4.11719 6.37464 4.11719 6.69342C4.11719 7.01221 4.37562 7.27064 4.6944 7.27064Z" fill="white"/>
<path d="M11.253 7.26087C11.5718 7.26087 11.8302 7.00245 11.8302 6.68366C11.8302 6.36487 11.5718 6.10645 11.253 6.10645C10.9342 6.10645 10.6758 6.36487 10.6758 6.68366C10.6758 7.00245 10.9342 7.26087 11.253 7.26087Z" fill="white"/>
<path d="M6.62409 5.42689C6.94288 5.42689 7.2013 5.16846 7.2013 4.84968C7.2013 4.53089 6.94288 4.27246 6.62409 4.27246C6.3053 4.27246 6.04688 4.53089 6.04688 4.84968C6.04688 5.16846 6.3053 5.42689 6.62409 5.42689Z" fill="white"/>
<path d="M9.33503 5.41712C9.65381 5.41712 9.91224 5.1587 9.91224 4.83991C9.91224 4.52112 9.65381 4.2627 9.33503 4.2627C9.01624 4.2627 8.75781 4.52112 8.75781 4.83991C8.75781 5.1587 9.01624 5.41712 9.33503 5.41712Z" fill="white"/>
</svg>
