<svg width="30" height="31" viewBox="0 0 30 31" fill="none" xmlns="http://www.w3.org/2000/svg">
<g clip-path="url(#clip0)">
<rect width="30" height="30" transform="translate(0 0.994812)" fill="white"/>
<rect x="0.153809" y="1.14185" width="29.6924" height="29.7059" rx="1" fill="#0B228C"/>
<g clip-path="url(#clip1)">
<path d="M6.62689 12.4359C6.97318 12.4359 7.25377 12.1553 7.25377 11.809V9.13617L11.2913 13.1729C11.4138 13.2953 11.5742 13.3565 11.7346 13.3565C11.8951 13.3565 12.0556 13.2953 12.1779 13.1728C12.4227 12.928 12.4227 12.5311 12.1778 12.2863L8.14011 8.2495H10.8136C11.1598 8.2495 11.4405 7.96882 11.4405 7.62261C11.4405 7.27641 11.1599 6.99573 10.8136 6.99573H6.62689C6.28059 6.99573 6 7.27641 6 7.62261V11.8091C6 12.1553 6.28059 12.4359 6.62689 12.4359Z" fill="white"/>
<path d="M23.3731 19.5544C23.0268 19.5544 22.7462 19.8351 22.7462 20.1813V22.8543L18.5844 18.6924C18.3395 18.4476 17.9426 18.4476 17.6978 18.6924C17.453 18.9372 17.453 19.3342 17.6978 19.5789L21.8595 23.7407H19.1868C18.8405 23.7407 18.5599 24.0214 18.5599 24.3676C18.5599 24.7138 18.8405 24.9945 19.1868 24.9945H23.3732C23.7195 24.9945 24.0001 24.7138 24.0001 24.3676V20.1813C24 19.8351 23.7193 19.5544 23.3731 19.5544Z" fill="white"/>
<path d="M11.4156 18.6924L7.2542 22.8542V20.1813C7.2542 19.8351 6.97361 19.5544 6.62731 19.5544C6.28102 19.5544 6.00043 19.8351 6.00043 20.1813V24.3677C6.00043 24.7139 6.28102 24.9946 6.62731 24.9946H10.8136C11.1598 24.9946 11.4405 24.7139 11.4405 24.3677C11.4405 24.0215 11.1599 23.7409 10.8136 23.7409H8.1407L12.3022 19.5789C12.547 19.3341 12.547 18.9372 12.3021 18.6923C12.0575 18.4476 11.6605 18.4476 11.4156 18.6924Z" fill="white"/>
<path d="M23.3731 6.99493H19.1867C18.8404 6.99493 18.5598 7.27561 18.5598 7.62182C18.5598 7.96803 18.8404 8.24871 19.1867 8.24871H21.8596L17.8226 12.2859C17.5778 12.5308 17.5778 12.9277 17.8227 13.1725C17.9451 13.2949 18.1056 13.3561 18.266 13.3561C18.4264 13.3561 18.5869 13.2948 18.7093 13.1724L22.7463 9.13521V11.8083C22.7463 12.1545 23.0269 12.4351 23.3732 12.4351C23.7195 12.4351 24.0001 12.1545 24.0001 11.8083V7.62182C24 7.27553 23.7193 6.99493 23.3731 6.99493Z" fill="white"/>
</g>
</g>
<defs>
<clipPath id="clip0">
<rect width="30" height="30" fill="white" transform="translate(0 0.994812)"/>
</clipPath>
<clipPath id="clip1">
<rect width="18" height="18" fill="white" transform="translate(6 6.99481)"/>
</clipPath>
</defs>
</svg>
