<svg width="19" height="19" viewBox="0 0 19 19" fill="none" xmlns="http://www.w3.org/2000/svg">
<g clip-path="url(#clip0)">
<path d="M1.47308 6.43587C1.81937 6.43587 2.09996 6.15519 2.09996 5.80898V3.13611L6.13753 7.17284C6.25998 7.29521 6.42038 7.35639 6.58078 7.35639C6.74126 7.35639 6.90175 7.29521 7.02412 7.17275C7.26894 6.92793 7.26894 6.53099 7.02403 6.28625L2.9863 2.24944H5.65976C6.00597 2.24944 6.28665 1.96876 6.28665 1.62255C6.28665 1.27634 6.00605 0.995667 5.65976 0.995667H1.47308C1.12679 0.995667 0.846191 1.27634 0.846191 1.62255V5.80907C0.846191 6.15519 1.12679 6.43587 1.47308 6.43587Z" fill="white"/>
<path d="M18.2193 13.5544C17.873 13.5544 17.5924 13.835 17.5924 14.1812V16.8542L13.4306 12.6923C13.1856 12.4475 12.7888 12.4475 12.544 12.6923C12.2991 12.9372 12.2991 13.3341 12.544 13.5788L16.7057 17.7406H14.0329C13.6867 17.7406 13.4061 18.0213 13.4061 18.3675C13.4061 18.7137 13.6867 18.9944 14.0329 18.9944H18.2194C18.5657 18.9944 18.8463 18.7137 18.8463 18.3675V14.1812C18.8462 13.835 18.5655 13.5544 18.2193 13.5544Z" fill="white"/>
<path d="M6.26177 12.6924L2.10033 16.8541V14.1812C2.10033 13.835 1.81974 13.5544 1.47344 13.5544C1.12715 13.5544 0.846558 13.835 0.846558 14.1812V18.3677C0.846558 18.7139 1.12715 18.9946 1.47344 18.9946H5.65971C6.00592 18.9946 6.28659 18.7139 6.28659 18.3677C6.28659 18.0215 6.006 17.7408 5.65971 17.7408H2.98683L7.14836 13.5789C7.39318 13.334 7.39318 12.9371 7.14827 12.6923C6.90362 12.4475 6.50667 12.4475 6.26177 12.6924Z" fill="white"/>
<path d="M18.2193 0.994873H14.0329C13.6866 0.994873 13.406 1.27555 13.406 1.62176C13.406 1.96797 13.6866 2.24865 14.0329 2.24865H16.7058L12.6688 6.28588C12.424 6.5307 12.424 6.92764 12.6689 7.17246C12.7913 7.29483 12.9518 7.35602 13.1122 7.35602C13.2726 7.35602 13.4331 7.29475 13.5555 7.17238L17.5925 3.13515V5.80819C17.5925 6.1544 17.8731 6.43508 18.2194 6.43508C18.5657 6.43508 18.8463 6.1544 18.8463 5.80819V1.62176C18.8462 1.27547 18.5655 0.994873 18.2193 0.994873Z" fill="white"/>
</g>
<defs>
<clipPath id="clip0">
<rect width="18" height="18" fill="white" transform="translate(0.846191 0.994751)"/>
</clipPath>
</defs>
</svg>
