<svg width="65" height="34" viewBox="0 0 65 34" fill="none" xmlns="http://www.w3.org/2000/svg">
<path fill-rule="evenodd" clip-rule="evenodd" d="M10.8409 5.78342L15.6284 13.0121L24.0231 10.8436L18.6276 17.6305L23.2841 24.9443L15.1621 21.9101L9.64521 28.5988L10.021 19.9367L1.95483 16.7567L10.3092 14.4374L10.8409 5.78342Z" fill="#FDCB00"/>
<path d="M63.3298 31.419H39.772C40.0418 29.0928 40.8612 26.9047 42.2299 24.8548C43.5986 22.8049 46.1658 20.3855 49.9316 17.5966C52.2321 15.8872 53.7036 14.5892 54.3463 13.7024C54.9888 12.8156 55.3101 11.9737 55.3101 11.177C55.3101 10.3159 54.9921 9.58006 54.3559 8.96954C53.7197 8.35911 52.9196 8.05389 51.9557 8.05389C50.9532 8.05389 50.134 8.36874 49.4977 8.99851C48.8616 9.62822 48.4343 10.74 48.2158 12.3336L40.3503 11.6974C40.6587 9.48689 41.2242 7.76146 42.0467 6.52125C42.8693 5.28103 44.0292 4.33 45.5265 3.6681C47.0238 3.00619 49.0961 2.67523 51.7437 2.67523C54.5069 2.67523 56.6564 2.99016 58.1922 3.61986C59.7281 4.24964 60.9362 5.21677 61.8165 6.52125C62.6969 7.82573 63.137 9.2877 63.137 10.907C63.137 12.6292 62.6326 14.2743 61.6237 15.8422C60.6148 17.4102 58.7802 19.1324 56.1198 21.0088C54.539 22.1012 53.4819 22.8659 52.9485 23.3029C52.4152 23.7399 51.7887 24.3118 51.0689 25.0186H63.3298V31.419Z" fill="#FDCB00"/>
<path d="M36.7011 22.1369L43.9862 23.3597C43.0496 26.031 41.5708 28.0647 39.5501 29.461C37.5293 30.8573 35.0013 31.5555 31.9658 31.5555C27.1611 31.5555 23.6053 29.9857 21.2983 26.8462C19.4771 24.3311 18.5664 21.1569 18.5664 17.3235C18.5664 12.7443 19.7633 9.15813 22.1569 6.565C24.5506 3.97187 27.5774 2.67523 31.2373 2.67523C35.3482 2.67523 38.5918 4.03255 40.9681 6.74712C43.3444 9.46168 44.4806 13.6203 44.3765 19.2229H26.0597C26.1117 21.391 26.7014 23.0779 27.8289 24.2834C28.9564 25.4889 30.3614 26.0917 32.0438 26.0917C33.1886 26.0917 34.1513 25.7794 34.9318 25.155C35.7124 24.5306 36.3021 23.5245 36.7011 22.1369ZM37.1174 14.7477C37.0653 12.6316 36.519 11.0228 35.4783 9.92132C34.4376 8.81993 33.1713 8.2692 31.6796 8.2692C30.0838 8.2692 28.7656 8.85027 27.7248 10.0124C26.6841 11.1746 26.1724 12.753 26.1898 14.7477H37.1174Z" fill="white"/>
</svg>
